<?xml version="1.0" encoding="utf-8"?>
<!-- Generator: Adobe Illustrator 16.0.4, SVG Export Plug-In . SVG Version: 6.00 Build 0)  -->
<!DOCTYPE svg PUBLIC "-//W3C//DTD SVG 1.1//EN" "http://www.w3.org/Graphics/SVG/1.1/DTD/svg11.dtd">
<svg version="1.1" id="Layer_1" xmlns="http://www.w3.org/2000/svg" xmlns:xlink="http://www.w3.org/1999/xlink" x="0px" y="0px"
	 width="463.39px" height="417.297px" viewBox="0 0 463.39 417.297" enable-background="new 0 0 463.39 417.297"
	 xml:space="preserve">
<g>
	<path d="M294.552,170.254l0.103-0.026l-2.918-0.703l-37.763-9.802l-4.707,7.38l12.143,3.151l-24.759,6.689l-24.863-6.689
		l11.639-3.009c-1.398-2.201-2.954-4.667-4.648-7.382l-39.822,10.29l-0.292,0.062l0.03,0.005l-0.126,0.035l0.126,0.038l-0.03,0.008
		l0.292,0.061l57.726,15.53l56.617-15.299l1.354-0.312L294.552,170.254z"/>
	<path d="M255.135,91.431c0,0,0.189,4.878-4.68,12.849c-0.122,0.199-4.615,7.951-4.615,7.951l-4.229,7.115
		c-0.031,0.032-0.063,0.07-0.095,0.106c-0.593,0.857-2.879,4.177-4.135,6.137c-1.457,2.265-2.151,5.721-2.151,5.721
		s-1.461-2.403-2.127-5.881c-0.879-4.589,2.964-10.798,3.327-11.366c0.785-1.474,1.556-2.56,1.556-2.56s6.054-9.464,6.516-10.325
		l0.738-1.446c3.277-6.768,9.449-24.958-6.63-44.016c0,0,0.454,4.74-4.415,12.711c-0.114,0.195-0.442,0.59-0.539,0.803
		l-18.717,31.309l-1.275,2.674c-1.402,3.367-3.345,9.651-2.45,17.211c0.344,6.71,2.28,18.931,10.863,32.767
		c4.148,6.687,7.122,11.369,9.28,14.688c1.024,1.699,2.87,2.848,4.999,2.848c2.164,0,4.035-1.188,5.051-2.927
		c0.008-0.003,0.023-0.007,0.035-0.009c0.095-0.203,0.201-0.41,0.304-0.618c0-0.01,0.013-0.019,0.017-0.029
		c0.039-0.088,0.074-0.171,0.122-0.259l18.318-28.691c0.008,0.009,1.567-2.749,1.567-2.749
		C265.042,128.675,271.214,110.49,255.135,91.431"/>
</g>
<g>
	<path d="M92.76,229.279c-2.352,0-8.731,0.138-11.081,0.272l0.021,31.784c0.92,5.86,4.566,7.814,12.25,7.811
		c15.505-0.012,19.535-11.088,19.533-21.636C113.475,236.959,106.174,229.275,92.76,229.279 M92.347,189.811
		c-2.222,0-7.56,0.133-10.689,0.265l0.021,34.39h8.079c14.329-0.008,19.406-7.957,19.394-18.903
		C109.148,192.669,100.422,189.805,92.347,189.811 M99.557,273.959l-45.336,0.027v-4.3c2.343-0.13,7.947-0.916,9.641-1.567
		c3.125-1.173,4.034-3.389,4.034-6.255l-0.033-63.963c-0.012-2.865-0.921-5.212-4.049-6.512c-2.733-1.171-6.777-1.949-9.116-2.076
		l-0.008-4.3l44.553-0.027c9.636-0.006,25.54,3.895,25.542,17.828c0.012,14.729-10.147,19.16-22.523,22.682v1.177
		c9.25,1.035,27.234,6.496,27.244,23.689C129.516,267.037,111.931,273.955,99.557,273.959"/>
	<path d="M168.456,213.602c-11.99,0.008-19.149,10.693-19.135,28.806c0.009,15.503,5.881,28.393,19.162,28.385
		c13.29-0.005,19.276-12.389,19.264-28.803C187.737,227.92,182.908,213.59,168.456,213.602 M191.674,266.606
		c-5.994,5.478-13.544,8.999-23.573,9.007c-8.863,0.004-15.77-2.858-22.417-8.849c-6.516-5.596-10.562-13.54-10.562-23.831
		c-0.006-10.291,3.108-18.239,9.628-24.494c6.503-6.52,14.191-9.65,23.699-9.66c9.247,0,16.679,2.6,24.108,9.628
		c5.995,5.469,9.384,14.196,9.393,23.313C201.953,251.49,198.968,260.091,191.674,266.606"/>
	<path d="M294.931,216.52c-2.468,1.177-3.771,3.392-4.813,6.128c-4.423,10.946-13.007,33.233-19.768,51.855l-5.998,0.008
		c-5.872-18.102-10.962-33.213-14.875-44.542l-17.3,44.562h-6.121c-7.7-23.443-15.274-45.975-17.884-54.181
		c-0.649-1.69-1.303-2.859-3.521-4.036c-1.554-0.908-5.336-1.56-7.424-1.69l-0.002-4.17l32.041-0.016l0.012,4.04
		c-3.653,0.13-8.731,1.307-8.731,3.005c0,0.648,0,1.69,0.263,2.208c1.309,3.905,5.87,18.114,12.397,37.901l12.612-32.179
		c0-4.043-1.429-7.041-4.687-8.987c-1.438-0.908-5.347-1.824-7.427-1.955l-0.004-4.036l34.132-0.02v4.044
		c-3.652,0.126-9.639,1.299-9.639,2.993c0,0.655,0,1.563,0.265,2.219c1.169,3.645,6.01,17.714,12.79,37.505
		c5.331-13.679,8.845-23.057,11.179-30.224c1.308-4.561,1.82-6.385,1.82-7.953c0-2.732-7.293-4.292-11.854-4.545l-0.008-4.044
		l30.098-0.016l0.009,4.166C300.4,214.696,296.625,215.612,294.931,216.52"/>
	<path d="M306.608,273.833v-4.162c1.946-0.134,7.159-0.659,8.466-1.05c2.081-0.656,2.989-2.22,2.989-4.04l-0.027-44.294
		c0-1.824-0.782-3.254-2.993-4.036c-1.698-0.525-6.52-1.56-8.475-1.69v-4.174l35.303-0.016l0.004,4.17
		c-2.085,0.13-6.776,0.786-8.466,1.307c-2.22,0.521-2.997,2.215-2.997,4.04l0.027,44.163c0,1.958,1.05,3.254,3.001,4.04
		c0.912,0.387,6.381,1.425,8.47,1.551v4.174L306.608,273.833z"/>
	<path d="M405.548,273.773l-59.531,0.035l-0.008-4.166c1.962-0.13,7.167-0.654,8.734-1.184c2.211-0.645,2.993-2.208,2.993-4.166
		l-0.027-43.899c-0.008-1.825-0.916-3.258-3.005-4.162c-1.829-0.79-6.772-1.568-8.724-1.694v-4.17l56.141-0.035l0.016,16.024h-3.783
		c-1.177-3.901-6.389-10.804-9.65-11.191c-2.342-0.265-5.466-0.521-8.593-0.521l-10.034,0.008l0.012,23.973l6.386-0.004
		c5.343-0.008,7.163-1.571,8.209-2.613c1.426-1.434,2.472-5.734,2.736-8.336l4.032-0.008l0.012,26.966l-4.031,0.004
		c-0.135-2.862-1.702-7.554-2.741-8.727c-1.177-1.3-3.131-2.859-8.205-2.859H370.1l0.008,18.113c0,7.167,1.694,8.071,10.682,8.067
		c6.523-0.004,12.384-0.008,14.599-2.223c2.985-2.74,7.021-11.207,7.93-13.81l3.909-0.004L405.548,273.773z"/>
	<path d="M62.662,312.097c-2.863,0-4.915-0.92-5.979-1.769l-1.243,1.662h-1.199l-0.248-8.629h1.17
		c1.448,3.748,3.5,7.282,7.886,7.282c3.147,0,4.354-1.698,4.354-4.245c0-1.907-1.173-3.605-3.293-4.454
		c-2.016-0.81-3.077-1.2-5.062-2.085c-2.72-1.205-4.35-3.147-4.35-6.295c0-3.751,3.217-6.543,7.25-6.543
		c1.84,0,4.034,0.811,5.273,1.766l1.201-1.662h1.199l0.182,8.383h-1.13c-1.421-4-2.867-7.045-7.292-7.041
		c-1.026,0-3.498,0.676-3.498,3.393c0,2.057,1.027,3.218,2.968,4.288c1.737,0.952,3.223,1.271,4.82,2.046
		c3.033,1.382,5.163,2.795,5.163,6.547C70.833,309.057,67.221,312.097,62.662,312.097"/>
	<path d="M93.537,293.979c-0.395-1.552-2.305-4.845-3.822-5.054c-0.849-0.107-2.021-0.139-2.871-0.139h-1.308l0.004,19.345
		c0,0.782,0.286,1.418,1.098,1.765c0.422,0.178,2.264,0.533,2.899,0.573v1.161l-11.743,0.004v-1.165
		c0.635-0.04,2.444-0.214,2.897-0.392c0.849-0.315,1.102-0.99,1.102-1.769l-0.008-19.522h-1.304c-0.637,0-2.022,0.031-2.869,0.139
		c-1.518,0.209-3.427,3.506-3.815,5.054H72.6v-6.503h22.136v6.503H93.537z"/>
	<path d="M105.461,292.281l-3.708,9.445h7.458L105.461,292.281z M108.513,311.631v-1.169c1.233-0.071,3.571-0.392,3.571-0.991
		c0-0.249-0.035-0.525-0.144-0.81l-2.126-5.413h-8.664c-0.528,1.275-1.025,2.652-1.341,3.719c-0.252,0.774-0.39,1.48-0.39,1.979
		c0,1.098,2.761,1.445,3.996,1.517v1.169h-10.08v-1.161c0.675-0.04,1.84-0.288,2.481-0.64c0.841-0.498,1.476-1.169,2.01-2.408
		c2.516-6.086,5.451-13.584,8.134-20.337h1.518c3.611,9.126,6.937,17.75,8.245,21.043c0.288,0.711,0.749,1.24,1.591,1.729
		c0.639,0.355,1.664,0.568,2.339,0.604v1.169H108.513z"/>
	<path d="M139.169,293.976c-0.39-1.552-2.296-4.845-3.815-5.062c-0.852-0.099-2.02-0.134-2.867-0.134h-1.311l0.002,19.349
		c0,0.774,0.279,1.409,1.097,1.765c0.423,0.178,2.264,0.533,2.9,0.569v1.169h-11.744v-1.169c0.639-0.036,2.438-0.214,2.898-0.392
		c0.852-0.315,1.1-0.986,1.1-1.769v-19.519h-1.312c-0.637,0-2.016,0.031-2.865,0.134c-1.526,0.218-3.428,3.507-3.816,5.062h-1.207
		v-6.507h22.143l0.006,6.503H139.169z"/>
	<path d="M163.668,311.627h-20.939v-1.169c0.635-0.036,2.329-0.214,2.792-0.384c0.851-0.319,1.096-0.959,1.096-1.736l-0.004-17.371
		c0-0.777-0.214-1.375-1.098-1.729c-0.667-0.284-2.151-0.565-2.786-0.604v-1.16l19.486-0.005v5.837h-1.309
		c-0.39-1.561-2.26-4.174-3.782-4.392c-0.854-0.099-1.804-0.134-2.938-0.134h-3.821v9.65h2.83c1.981,0,2.552-0.667,2.979-1.094
		c0.526-0.533,0.98-2.16,1.094-3.076h1.302v9.864h-1.302c-0.071-1.026-0.673-2.792-1.094-3.25c-0.463-0.497-1.063-1.094-2.979-1.094
		h-2.83l0.002,7.246c0,2.902,0.639,3.218,4.205,3.218c1.846,0,4.604,0.076,5.456-0.812c1.055-1.098,2.51-3.891,2.863-4.952h1.241
		L163.668,311.627z"/>
	<path d="M198.824,289.442c-0.954,0.604-1.167,2.512-1.167,4.703v10.401c0,5.766-5.517,7.641-9.191,7.641
		c-6.189,0-9.483-3.254-9.483-6.934v-14.287c0-0.777-0.282-1.347-1.098-1.773c-0.636-0.315-1.911-0.525-2.476-0.564v-1.161
		l11.001-0.008v1.169c-0.64,0.039-1.905,0.213-2.543,0.427c-0.885,0.28-1.098,0.956-1.098,1.733v13.406
		c0,2.543,0.884,6.121,6.405,6.121c5.621-0.004,6.79-3.823,6.79-6.264v-9.693c0-2.583-0.427-4.242-1.21-4.739
		c-0.876-0.564-2.792-0.956-3.6-0.991v-1.169h10.92l0.008,1.169C201.444,288.664,199.574,288.98,198.824,289.442"/>
	<path d="M228.789,289.475c-0.958,0.6-1.169,2.124-1.169,4.738l0.008,17.65h-1.485l-15.678-19.732v12.376
		c0.008,2.938,0.43,4.214,1.206,4.849c0.604,0.494,3.007,1.059,3.645,1.099v1.165l-10.966,0.004v-1.169
		c0.638-0.04,2.9-0.64,3.297-0.921c0.841-0.604,1.161-1.871,1.161-4.849l-0.004-11.743c0-1.023-0.422-2.228-1.133-2.792
		c-0.845-0.675-2.827-1.485-3.779-1.521v-1.169h7.459l14.615,18.39l-0.006-11.424c0-2.827-0.422-4.276-1.202-4.773
		c-0.675-0.424-2.796-0.988-3.609-1.027v-1.165h10.893v1.161C231.408,288.66,229.354,289.123,228.789,289.475"/>
	<path d="M234.33,311.615v-1.165c0.639-0.036,2.128-0.143,2.59-0.32c0.841-0.319,1.094-0.92,1.094-1.698l-0.004-17.508
		c0-0.778-0.213-1.344-1.102-1.695c-0.632-0.248-1.939-0.568-2.578-0.607l-0.004-1.161l11.104-0.008v1.169
		c-0.628,0.039-1.938,0.213-2.57,0.426c-0.889,0.281-1.102,0.921-1.102,1.699v17.508c0,0.778,0.28,1.348,1.102,1.699
		c0.418,0.177,1.942,0.461,2.578,0.497v1.165H234.33z"/>
	<path d="M270.899,289.293c-0.924,0.528-1.347,1.133-1.84,2.227c-1.449,3.364-5.907,13.73-8.668,20.38h-1.48
		c-3.294-9.165-6.401-17.722-7.574-20.944c-0.288-0.738-0.746-1.236-1.591-1.734c-0.636-0.352-1.663-0.561-2.338-0.6v-1.169h10.974
		v1.169c-1.244,0.075-3.439,0.182-3.439,0.924c0,0.245,0.067,0.592,0.182,0.881c0.533,1.488,2.934,8.205,5.872,16.127
		c2.227-5.268,4.485-10.504,5.583-13.264c0.81-2.05,0.81-2.725,0.81-3.152c0-1.018-2.433-1.409-4.06-1.516l-0.008-1.169h9.876v1.169
		C272.526,288.656,271.535,288.941,270.899,289.293"/>
	<path d="M295.907,311.607l-20.94,0.004v-1.165c0.64-0.04,2.338-0.218,2.8-0.392c0.845-0.319,1.098-0.955,1.098-1.732l-0.008-17.367
		c0-0.778-0.214-1.383-1.09-1.734c-0.68-0.279-2.16-0.568-2.8-0.6v-1.173h19.495v5.837h-1.312c-0.391-1.553-2.263-4.174-3.786-4.384
		c-0.846-0.106-1.805-0.142-2.935-0.142h-3.826l0.008,9.654h2.827c1.982,0,2.547-0.668,2.97-1.09c0.533-0.533,0.991-2.16,1.102-3.08
		h1.3l0.008,9.864l-1.308,0.004c-0.075-1.022-0.675-2.796-1.102-3.258c-0.458-0.489-1.059-1.094-2.97-1.094h-2.827v7.254
		c0,2.898,0.636,3.214,4.21,3.214c1.84,0,4.596,0.071,5.445-0.812c1.058-1.098,2.515-3.891,2.862-4.952h1.24L295.907,311.607z"/>
	<path d="M309.384,288.791h-3.076v9.872l2.263-0.005c3.143,0,5.693-2.045,5.693-5.338
		C314.264,290.102,312.069,288.791,309.384,288.791 M315.856,311.607c-0.533-2.587-1.059-4.601-2.01-7.006
		c-0.999-2.508-3.262-4.561-5.729-4.561h-1.809v8.277c0,0.773,0.248,1.448,1.098,1.765c0.462,0.182,2.049,0.319,2.685,0.363v1.161
		h-11.179v-1.161c0.64-0.044,2.093-0.182,2.551-0.363c0.845-0.316,1.094-0.991,1.094-1.765v-17.475c0-0.781-0.209-1.484-1.098-1.769
		c-0.632-0.214-1.907-0.423-2.547-0.462v-1.165h12.309c3.577,0,7.396,1.591,7.396,5.517c0,3.857-2.938,5.094-6.76,6.156v0.352
		c2.128,0.497,4.782,1.666,5.907,4.493c0.568,1.414,1.275,3.677,1.449,4.175c0.58,1.729,1.556,1.879,2.231,2.014
		c0.71,0.146,1.523,0.248,2.163,0.283v1.17H315.856z"/>
	<path d="M334.159,312.061c-2.867,0-4.925-0.92-5.979-1.769l-1.24,1.667h-1.2l-0.249-8.637h1.165c1.449,3.76,3.507,7.293,7.89,7.293
		c3.151,0,4.352-1.701,4.352-4.244c0-1.912-1.173-3.609-3.285-4.459c-2.021-0.812-3.088-1.203-5.059-2.084
		c-2.732-1.201-4.355-3.147-4.355-6.299c0-3.747,3.219-6.543,7.246-6.547c1.848,0,4.035,0.817,5.271,1.773l1.2-1.663h1.205
		l0.178,8.38h-1.134c-1.418-3.996-2.858-7.037-7.285-7.037c-1.031,0-3.503,0.672-3.503,3.396c0,2.053,1.026,3.222,2.974,4.279
		c1.737,0.952,3.214,1.271,4.81,2.05c3.045,1.382,5.169,2.792,5.169,6.544C342.329,309.021,338.719,312.061,334.159,312.061"/>
	<path d="M344.686,311.604v-1.166c0.64-0.039,2.12-0.142,2.587-0.323c0.849-0.312,1.098-0.916,1.098-1.694l-0.008-17.509
		c0-0.778-0.21-1.347-1.095-1.698c-0.64-0.244-1.942-0.568-2.582-0.604v-1.169h11.1l0.009,1.169
		c-0.641,0.035-1.951,0.209-2.587,0.426c-0.885,0.281-1.098,0.92-1.098,1.699v17.508c0,0.778,0.284,1.348,1.098,1.698
		c0.431,0.174,1.946,0.458,2.587,0.493v1.17H344.686z"/>
	<path d="M379.183,293.948c-0.392-1.556-2.299-4.85-3.823-5.059c-0.841-0.103-2.01-0.138-2.862-0.138h-1.312l0.004,19.345
		c0,0.778,0.276,1.417,1.098,1.772c0.423,0.178,2.263,0.529,2.903,0.561v1.17h-11.744v-1.166c0.636-0.035,2.437-0.209,2.898-0.387
		c0.853-0.323,1.09-0.994,1.09-1.769v-19.526h-1.307c-0.637,0-2.015,0.035-2.863,0.138c-1.521,0.218-3.432,3.503-3.814,5.062h-1.204
		v-6.516h22.137l0.008,6.512H379.183z"/>
	<path d="M403.989,289.272c-0.924,0.533-1.137,0.675-2.049,1.809c-1.911,2.405-3.325,4.983-5.375,8.703
		c-0.706,1.271-1.239,2.792-1.239,3.961v4.352c0,0.813,0.288,1.413,1.102,1.769c0.422,0.178,2.255,0.529,2.898,0.561v1.17h-11.744
		v-1.166c0.632-0.035,2.437-0.209,2.898-0.387c0.845-0.319,1.098-0.99,1.098-1.769v-5.805c0-0.703-0.395-1.588-0.92-2.653
		c-1.631-3.176-3.009-5.659-4.498-8.246c-0.738-1.268-1.484-1.902-2.333-2.4c-0.632-0.352-1.592-0.529-2.263-0.561v-1.173h11.384
		v1.169c-1.231,0.07-3.565,0.07-3.565,0.849c0,0.493,2.259,4.667,5.41,10.255c3.289-5.164,5.658-9.229,5.658-9.793
		c0-1.062-1.982-1.204-3.605-1.311v-1.169h9.193v1.169C405.616,288.641,404.375,289.027,403.989,289.272"/>
	<path d="M267.85,336.011l-0.75-0.64c-1.654,1.279-2.97,1.994-5.639,1.994c-2.935,0-4.363-0.869-4.893-1.469h-1.24l-2.858,12.64
		l1.504,0.3c0.676-1.994,2.97-2.748,4.589-2.748c1.769,0,4.363,0.679,4.363,3.913c0,3.124-1.09,8.237-5.303,8.237
		c-2.03,0-3.389-0.825-3.499-1.505c0-1.279,0.525-1.279,0.525-2.404c0-0.979-0.564-1.658-1.615-1.658
		c-0.825,0-2.373,0.454-2.373,2.408c0,2.444,2.673,4.474,6.997,4.474c4.589,0,9.181-3.044,9.181-7.633
		c0-4.703-3.728-7.262-7.602-7.262c-1.689,0-3.688,0.568-4.849,1.43l1.39-5.489c0.226,0.04,1.2,0.075,2.104,0.075
		C259.278,340.674,265.56,340.449,267.85,336.011 M243.218,350.866c0,2.858-0.715,7.372-4.814,7.372
		c-2.184,0-4.514-2.294-4.514-6.618c0-4.889,2.56-6.697,4.668-6.697C241.752,344.923,243.218,347.067,243.218,350.866
		 M247.996,336.421c0-1.275-1.09-3.724-4.928-3.724c-6.318,0-12.861,7.108-12.861,16.139c0,6.844,3.684,10.717,8.087,10.717
		c6.879,0,8.987-5.113,8.987-8.687c0-4.735-3.463-7.787-6.768-7.787c-2.749,0-4.628,0.794-6.247,2.898l-0.15-0.075
		c0.94-7.223,4.024-11.511,7.333-11.511c1.354,0,1.919,0.189,2.259,0.904c0.754,1.544,0.525,3.273,2.369,3.273
		C247.506,338.569,247.996,337.74,247.996,336.421 M222.455,353.689c0,3.044-2.634,4.474-5.378,4.474
		c-3.499,0-5.039-1.88-5.039-4.363c0-2.33,1.28-4.663,3.12-5.639C218.546,348.836,222.455,350.305,222.455,353.689 M222.345,340.749
		c0,2.145-0.64,4.214-2.709,5.039c-4.138-0.676-6.472-2.141-6.472-5.074c0-2.184,1.844-3.764,4.628-3.764
		C220.611,336.95,222.345,338.305,222.345,340.749 M225.764,352.335c0-3.724-2.744-5.118-4.738-5.943v-0.189
		c2.594-1.125,3.838-3.498,3.838-5.153c0-3.309-2.709-5.488-7.11-5.488c-3.761,0-7.75,2.783-7.75,6.657
		c0,2.935,1.319,4.135,3.763,5.339v0.189c-1.879,0.676-4.553,2.97-4.553,6.204c0,3.163,3.088,5.643,7.524,5.643
		C221.103,359.593,225.764,356.849,225.764,352.335 M205.454,359.028v-1.24c-0.677-0.039-2.257-0.225-2.817-0.489
		c-0.679-0.301-1.094-1.016-1.094-1.805v-14.03c0-1.694,0.26-4.063,0.527-5.643h-0.863c-1.094,0.75-2.634,1.579-4.78,1.579
		c-1.504,0-2.821-0.375-3.949-0.86l-0.49,0.9c1.356,1.129,3.157,2.365,4.363,2.365c0.677,0,1.127-0.036,1.542-0.146v16.021
		c0,0.829-0.49,1.544-1.165,1.769c-0.527,0.189-2.294,0.301-2.972,0.34v1.24H205.454z"/>
	<rect x="55.458" y="348.094" width="111.677" height="2.199"/>
	<rect x="294.88" y="348.094" width="111.676" height="2.199"/>
</g>
</svg>
